<svg width="101" height="94" viewBox="0 0 101 94" fill="none" xmlns="http://www.w3.org/2000/svg">
<path d="M87.3896 0H13.6105C6.09408 0 0.000549316 5.67098 0.000549316 12.6667V81.3329C0.000549316 88.3286 6.09384 93.9995 13.6105 93.9995H49.998L50.06 60.4092H40.6834C39.4648 60.4092 38.4758 59.4922 38.4711 58.3581L38.4262 47.5305C38.4215 46.3902 39.4135 45.4635 40.6387 45.4635H49.9983V35.0013C49.9983 22.8601 57.9656 16.249 69.6029 16.249H79.1522C80.374 16.249 81.3648 17.1709 81.3648 18.3082V27.4381C81.3648 28.575 80.3747 29.4966 79.1535 29.4973L73.2932 29.4998C66.9644 29.4998 65.739 32.2987 65.739 36.4063V45.4637H79.6454C80.9704 45.4637 81.9985 46.5406 81.8424 47.7653L80.4634 58.5928C80.3315 59.629 79.3874 60.4096 78.2665 60.4096H65.801L65.739 94H87.3901C94.9065 94 101 88.329 101 81.3335V12.6667C101 5.67098 94.9063 0 87.3896 0Z" fill="white"/>
</svg>
