<svg width="194" height="47" viewBox="0 0 194 47" fill="none" xmlns="http://www.w3.org/2000/svg">
<path d="M28.4219 19.1641V32.6875C27.8906 33.3281 27.0703 34.0234 25.9609 34.7734C24.8516 35.5078 23.4219 36.1406 21.6719 36.6719C19.9219 37.2031 17.8047 37.4688 15.3203 37.4688C13.1172 37.4688 11.1094 37.1094 9.29688 36.3906C7.48438 35.6562 5.92188 34.5859 4.60938 33.1797C3.3125 31.7734 2.3125 30.0547 1.60938 28.0234C0.90625 25.9766 0.554688 23.6406 0.554688 21.0156V18.8828C0.554688 16.2578 0.890625 13.9219 1.5625 11.875C2.25 9.82812 3.22656 8.10156 4.49219 6.69531C5.75781 5.28906 7.26562 4.21875 9.01562 3.48438C10.7656 2.75 12.7109 2.38281 14.8516 2.38281C17.8203 2.38281 20.2578 2.86719 22.1641 3.83594C24.0703 4.78906 25.5234 6.11719 26.5234 7.82031C27.5391 9.50781 28.1641 11.4453 28.3984 13.6328H21.5781C21.4062 12.4766 21.0781 11.4688 20.5938 10.6094C20.1094 9.75 19.4141 9.07812 18.5078 8.59375C17.6172 8.10938 16.4609 7.86719 15.0391 7.86719C13.8672 7.86719 12.8203 8.10938 11.8984 8.59375C10.9922 9.0625 10.2266 9.75781 9.60156 10.6797C8.97656 11.6016 8.5 12.7422 8.17188 14.1016C7.84375 15.4609 7.67969 17.0391 7.67969 18.8359V21.0156C7.67969 22.7969 7.85156 24.375 8.19531 25.75C8.53906 27.1094 9.04688 28.2578 9.71875 29.1953C10.4062 30.1172 11.25 30.8125 12.25 31.2812C13.25 31.75 14.4141 31.9844 15.7422 31.9844C16.8516 31.9844 17.7734 31.8906 18.5078 31.7031C19.2578 31.5156 19.8594 31.2891 20.3125 31.0234C20.7812 30.7422 21.1406 30.4766 21.3906 30.2266V24.1797H14.9688V19.1641H28.4219Z" fill="black"/>
<path d="M40.7969 1V37H34.0234V1H40.7969Z" fill="black"/>
<path d="M61.375 30.9297V11.6406H68.125V37H61.7734L61.375 30.9297ZM62.125 25.7266L64.1172 25.6797C64.1172 27.3672 63.9219 28.9375 63.5312 30.3906C63.1406 31.8281 62.5547 33.0781 61.7734 34.1406C60.9922 35.1875 60.0078 36.0078 58.8203 36.6016C57.6328 37.1797 56.2344 37.4688 54.625 37.4688C53.3906 37.4688 52.25 37.2969 51.2031 36.9531C50.1719 36.5938 49.2812 36.0391 48.5312 35.2891C47.7969 34.5234 47.2188 33.5469 46.7969 32.3594C46.3906 31.1562 46.1875 29.7109 46.1875 28.0234V11.6406H52.9375V28.0703C52.9375 28.8203 53.0234 29.4531 53.1953 29.9688C53.3828 30.4844 53.6406 30.9062 53.9688 31.2344C54.2969 31.5625 54.6797 31.7969 55.1172 31.9375C55.5703 32.0781 56.0703 32.1484 56.6172 32.1484C58.0078 32.1484 59.1016 31.8672 59.8984 31.3047C60.7109 30.7422 61.2812 29.9766 61.6094 29.0078C61.9531 28.0234 62.125 26.9297 62.125 25.7266Z" fill="black"/>
<path d="M80.0312 17.1719V37H73.2812V11.6406H79.6328L80.0312 17.1719ZM87.6719 11.4766L87.5547 17.7344C87.2266 17.6875 86.8281 17.6484 86.3594 17.6172C85.9062 17.5703 85.4922 17.5469 85.1172 17.5469C84.1641 17.5469 83.3359 17.6719 82.6328 17.9219C81.9453 18.1562 81.3672 18.5078 80.8984 18.9766C80.4453 19.4453 80.1016 20.0156 79.8672 20.6875C79.6484 21.3594 79.5234 22.125 79.4922 22.9844L78.1328 22.5625C78.1328 20.9219 78.2969 19.4141 78.625 18.0391C78.9531 16.6484 79.4297 15.4375 80.0547 14.4062C80.6953 13.375 81.4766 12.5781 82.3984 12.0156C83.3203 11.4531 84.375 11.1719 85.5625 11.1719C85.9375 11.1719 86.3203 11.2031 86.7109 11.2656C87.1016 11.3125 87.4219 11.3828 87.6719 11.4766Z" fill="black"/>
<path d="M106.445 11.6406H112.562V36.1562C112.562 38.4688 112.047 40.4297 111.016 42.0391C110 43.6641 108.578 44.8906 106.75 45.7188C104.922 46.5625 102.797 46.9844 100.375 46.9844C99.3125 46.9844 98.1875 46.8438 97 46.5625C95.8281 46.2812 94.7031 45.8438 93.625 45.25C92.5625 44.6562 91.6719 43.9062 90.9531 43L93.9297 39.0156C94.7109 39.9219 95.6172 40.625 96.6484 41.125C97.6797 41.6406 98.8203 41.8984 100.07 41.8984C101.289 41.8984 102.32 41.6719 103.164 41.2188C104.008 40.7812 104.656 40.1328 105.109 39.2734C105.562 38.4297 105.789 37.4062 105.789 36.2031V17.5L106.445 11.6406ZM89.3828 24.625V24.1328C89.3828 22.1953 89.6172 20.4375 90.0859 18.8594C90.5703 17.2656 91.25 15.8984 92.125 14.7578C93.0156 13.6172 94.0938 12.7344 95.3594 12.1094C96.625 11.4844 98.0547 11.1719 99.6484 11.1719C101.336 11.1719 102.75 11.4844 103.891 12.1094C105.031 12.7344 105.969 13.625 106.703 14.7812C107.438 15.9219 108.008 17.2734 108.414 18.8359C108.836 20.3828 109.164 22.0781 109.398 23.9219V25C109.164 26.7656 108.812 28.4062 108.344 29.9219C107.875 31.4375 107.258 32.7656 106.492 33.9062C105.727 35.0312 104.773 35.9062 103.633 36.5312C102.508 37.1562 101.164 37.4688 99.6016 37.4688C98.0391 37.4688 96.625 37.1484 95.3594 36.5078C94.1094 35.8672 93.0391 34.9688 92.1484 33.8125C91.2578 32.6562 90.5703 31.2969 90.0859 29.7344C89.6172 28.1719 89.3828 26.4688 89.3828 24.625ZM96.1328 24.1328V24.625C96.1328 25.6719 96.2344 26.6484 96.4375 27.5547C96.6406 28.4609 96.9531 29.2656 97.375 29.9688C97.8125 30.6562 98.3516 31.1953 98.9922 31.5859C99.6484 31.9609 100.422 32.1484 101.312 32.1484C102.547 32.1484 103.555 31.8906 104.336 31.375C105.117 30.8438 105.703 30.1172 106.094 29.1953C106.484 28.2734 106.711 27.2109 106.773 26.0078V22.9375C106.742 21.9531 106.609 21.0703 106.375 20.2891C106.141 19.4922 105.812 18.8125 105.391 18.25C104.969 17.6875 104.422 17.25 103.75 16.9375C103.078 16.625 102.281 16.4688 101.359 16.4688C100.469 16.4688 99.6953 16.6719 99.0391 17.0781C98.3984 17.4688 97.8594 18.0078 97.4219 18.6953C97 19.3828 96.6797 20.1953 96.4609 21.1328C96.2422 22.0547 96.1328 23.0547 96.1328 24.1328Z" fill="black"/>
<path d="M129.484 37.4688C127.516 37.4688 125.75 37.1562 124.188 36.5312C122.625 35.8906 121.297 35.0078 120.203 33.8828C119.125 32.7578 118.297 31.4531 117.719 29.9688C117.141 28.4688 116.852 26.875 116.852 25.1875V24.25C116.852 22.3281 117.125 20.5703 117.672 18.9766C118.219 17.3828 119 16 120.016 14.8281C121.047 13.6562 122.297 12.7578 123.766 12.1328C125.234 11.4922 126.891 11.1719 128.734 11.1719C130.531 11.1719 132.125 11.4688 133.516 12.0625C134.906 12.6562 136.07 13.5 137.008 14.5938C137.961 15.6875 138.68 17 139.164 18.5312C139.648 20.0469 139.891 21.7344 139.891 23.5938V26.4062H119.734V21.9062H133.258V21.3906C133.258 20.4531 133.086 19.6172 132.742 18.8828C132.414 18.1328 131.914 17.5391 131.242 17.1016C130.57 16.6641 129.711 16.4453 128.664 16.4453C127.773 16.4453 127.008 16.6406 126.367 17.0312C125.727 17.4219 125.203 17.9688 124.797 18.6719C124.406 19.375 124.109 20.2031 123.906 21.1562C123.719 22.0938 123.625 23.125 123.625 24.25V25.1875C123.625 26.2031 123.766 27.1406 124.047 28C124.344 28.8594 124.758 29.6016 125.289 30.2266C125.836 30.8516 126.492 31.3359 127.258 31.6797C128.039 32.0234 128.922 32.1953 129.906 32.1953C131.125 32.1953 132.258 31.9609 133.305 31.4922C134.367 31.0078 135.281 30.2812 136.047 29.3125L139.328 32.875C138.797 33.6406 138.07 34.375 137.148 35.0781C136.242 35.7812 135.148 36.3594 133.867 36.8125C132.586 37.25 131.125 37.4688 129.484 37.4688Z" fill="black"/>
<path d="M155.406 37.4688C153.438 37.4688 151.672 37.1562 150.109 36.5312C148.547 35.8906 147.219 35.0078 146.125 33.8828C145.047 32.7578 144.219 31.4531 143.641 29.9688C143.062 28.4688 142.773 26.875 142.773 25.1875V24.25C142.773 22.3281 143.047 20.5703 143.594 18.9766C144.141 17.3828 144.922 16 145.938 14.8281C146.969 13.6562 148.219 12.7578 149.688 12.1328C151.156 11.4922 152.812 11.1719 154.656 11.1719C156.453 11.1719 158.047 11.4688 159.438 12.0625C160.828 12.6562 161.992 13.5 162.93 14.5938C163.883 15.6875 164.602 17 165.086 18.5312C165.57 20.0469 165.812 21.7344 165.812 23.5938V26.4062H145.656V21.9062H159.18V21.3906C159.18 20.4531 159.008 19.6172 158.664 18.8828C158.336 18.1328 157.836 17.5391 157.164 17.1016C156.492 16.6641 155.633 16.4453 154.586 16.4453C153.695 16.4453 152.93 16.6406 152.289 17.0312C151.648 17.4219 151.125 17.9688 150.719 18.6719C150.328 19.375 150.031 20.2031 149.828 21.1562C149.641 22.0938 149.547 23.125 149.547 24.25V25.1875C149.547 26.2031 149.688 27.1406 149.969 28C150.266 28.8594 150.68 29.6016 151.211 30.2266C151.758 30.8516 152.414 31.3359 153.18 31.6797C153.961 32.0234 154.844 32.1953 155.828 32.1953C157.047 32.1953 158.18 31.9609 159.227 31.4922C160.289 31.0078 161.203 30.2812 161.969 29.3125L165.25 32.875C164.719 33.6406 163.992 34.375 163.07 35.0781C162.164 35.7812 161.07 36.3594 159.789 36.8125C158.508 37.25 157.047 37.4688 155.406 37.4688Z" fill="black"/>
<path d="M176.406 0.976562V37H169.656V0.976562H176.406ZM192.391 11.6406L181.375 24.2031L175.469 30.1797L173.008 25.3047L177.695 19.3516L184.281 11.6406H192.391ZM185.383 37L177.883 25.2812L182.547 21.2031L193.164 37H185.383Z" fill="black"/>
</svg>
