<svg width="99" height="94" viewBox="0 0 99 94" fill="none" xmlns="http://www.w3.org/2000/svg">
<g clip-path="url(#clip0_2_71)">
<path d="M96.0816 18.4473C95.5934 18.5827 95.1054 18.7087 94.6174 18.8261C91.634 19.5414 91.3598 18.5976 93.5198 16.5152C94.487 15.5821 95.3418 14.5672 96.084 13.4711C97.7477 11.013 96.3047 9.94109 93.4741 11.0893C92.4644 11.4989 91.4379 11.8702 90.3973 12.2013C87.4807 13.1313 83.342 11.7285 80.7432 10.1634C77.4623 8.18794 73.7336 7.20071 69.5559 7.20071C63.704 7.20071 58.7162 9.1603 54.5894 13.0764C50.464 16.9945 48.4002 21.7318 48.4002 27.2867C48.4002 28.0464 48.4459 28.8177 48.5362 29.5997C48.6844 30.8726 46.4266 31.7953 43.3799 31.3868C36.7893 30.5033 30.5276 28.6071 24.5934 25.7004C18.7082 22.8181 13.5141 19.1909 9.01185 14.8188C6.85972 12.7292 3.94899 12.9092 3.14542 15.7299C2.66398 17.4209 2.42453 19.1794 2.42453 21.0058C2.42453 24.4478 3.2758 27.6401 4.97872 30.5828C5.82562 32.0472 6.81747 33.373 7.95645 34.5592C9.87223 36.556 9.57907 37.7145 6.91234 37.0046C4.24671 36.2947 2.29324 35.2407 2.29324 35.3096C2.29324 35.3784 2.29324 35.4344 2.29324 35.4344C2.29324 40.2837 3.89691 44.5447 7.10627 48.2132C9.08323 50.4733 11.3799 52.2192 13.9955 53.4488C16.7536 54.746 18.0385 55.4696 16.4962 55.6591C15.5657 55.7734 14.6295 55.8304 13.688 55.8304C13.0506 55.8304 12.382 55.8029 11.6844 55.7469C10.5811 55.658 10.3828 57.8408 12.0555 60.2937C13.385 62.2427 15.0866 63.9578 17.1595 65.4394C19.2679 66.9472 21.5403 68.0295 23.9728 68.6887C26.9327 69.4898 27.5267 70.949 24.8876 72.4514C18.3573 76.172 11.1305 78.032 3.20825 78.032C2.31563 78.032 1.46418 78.0129 0.650776 77.9759C-0.761158 77.9115 0.18608 79.0922 2.9118 80.4477C11.4291 84.6834 20.6529 86.7994 30.5845 86.7994C38.0934 86.7994 45.1453 85.6706 51.7392 83.4114C58.3307 81.1524 63.964 78.125 68.6356 74.3317C73.3071 70.5384 77.3357 66.1757 80.72 61.2417C84.1035 56.3078 86.6242 51.1567 88.2847 45.789C89.9428 40.4202 90.7731 35.0407 90.7731 29.6507C90.7731 29.1651 90.7687 28.729 90.7609 28.345C90.7453 27.6234 92.7557 25.67 95 23.6713C96.013 22.7688 96.9791 21.8217 97.902 20.8283C99.9376 18.6346 99.036 17.6294 96.0816 18.4473Z" fill="white"/>
</g>
<defs>
<clipPath id="clip0_2_71">
<rect width="99" height="94" fill="white"/>
</clipPath>
</defs>
</svg>
