<svg width="110" height="111" viewBox="0 0 110 111" fill="none" xmlns="http://www.w3.org/2000/svg">
<path d="M105.712 23.1471C101.742 18.3841 94.4109 16.4413 80.4103 16.4413H29.5886C15.2676 16.4413 7.81248 18.5094 3.85674 23.5803C0 28.5245 0 35.8093 0 45.8917V65.1087C0 84.6414 4.576 94.5588 29.5886 94.5588H80.4107C92.5519 94.5588 99.2796 92.8443 103.632 88.641C108.096 84.3306 110 77.2929 110 65.1087V45.8917C110 35.259 109.702 27.9312 105.712 23.1471ZM70.6204 58.1533L47.5424 70.3242C47.0264 70.5964 46.4622 70.7314 45.8987 70.7314C45.2607 70.7314 44.6242 70.558 44.0603 70.2136C42.9986 69.5644 42.3504 68.4032 42.3504 67.1507V42.8868C42.3504 41.6365 42.9969 40.4763 44.0564 39.8268C45.1163 39.1773 46.4345 39.1329 47.5342 39.7094L70.6122 51.8019C71.7864 52.4171 72.5237 53.6402 72.5255 54.9747C72.5269 56.3103 71.7927 57.5352 70.6204 58.1533Z" fill="white"/>
</svg>
